<?xml version="1.0" standalone="no"?>
<!DOCTYPE svg PUBLIC "-//W3C//DTD SVG 20010904//EN"
 "http://www.w3.org/TR/2001/REC-SVG-20010904/DTD/svg10.dtd">
<svg version="1.0" xmlns="http://www.w3.org/2000/svg"
 width="260.000000pt" height="260.000000pt" viewBox="0 0 260.000000 260.000000"
 preserveAspectRatio="xMidYMid meet">
<metadata>
Created by potrace 1.14, written by Peter Selinger 2001-2017
</metadata>
<g transform="translate(0.000000,260.000000) scale(0.100000,-0.100000)"
fill="#000000" stroke="none">
<path d="M1133 2539 c-407 -47 -772 -308 -962 -687 -112 -222 -154 -507 -115
-771 63 -427 369 -806 780 -965 368 -142 806 -102 1141 106 109 67 300 252
372 361 142 213 211 443 211 704 0 384 -137 694 -422 949 -260 234 -633 346
-1005 303z m514 -281 c194 -70 378 -212 493 -378 209 -306 236 -730 66 -1068
-24 -48 -52 -97 -63 -110 l-18 -23 -299 778 c-165 428 -306 793 -313 811 l-14
34 33 -7 c18 -4 70 -21 115 -37z m-581 15 c-110 -302 -604 -1562 -611 -1560
-19 6 -116 213 -136 292 -42 168 -40 409 6 570 32 113 99 251 163 336 114 149
286 279 460 345 101 39 127 42 118 17z m359 -748 c68 -175 123 -321 121 -322
-2 -2 -118 -2 -258 -1 l-255 3 122 310 c66 171 125 319 129 330 5 11 10 16 12
10 2 -5 60 -154 129 -330z m340 -889 c40 -109 79 -202 85 -206 17 -10 -97 -73
-200 -110 -127 -47 -242 -63 -400 -57 -160 6 -254 29 -385 91 -147 71 -141 41
-50 280 l79 206 399 -2 399 -3 73 -199z"/>
</g>
</svg>
